<?xml version="1.0" standalone="no"?>
<!DOCTYPE svg PUBLIC "-//W3C//DTD SVG 20010904//EN"
 "http://www.w3.org/TR/2001/REC-SVG-20010904/DTD/svg10.dtd">
<svg version="1.0" xmlns="http://www.w3.org/2000/svg"
 width="514.000000pt" height="514.000000pt" viewBox="0 0 514.000000 514.000000"
 preserveAspectRatio="xMidYMid meet">
<metadata>
Created by potrace 1.14, written by Peter Selinger 2001-2017
</metadata>
<g transform="translate(0.000000,514.000000) scale(0.100000,-0.100000)"
fill="#000000" stroke="none">
<path d="M2328 5125 c-2 -2 -42 -6 -88 -9 -47 -4 -94 -8 -105 -10 -11 -2 -42
-7 -70 -10 -85 -12 -99 -15 -197 -40 -187 -49 -313 -113 -409 -206 -66 -64
-114 -142 -123 -197 -7 -43 -8 -86 -7 -390 l1 -283 620 0 620 0 0 -88 0 -88
-922 0 c-995 -1 -981 0 -1111 -55 -89 -37 -149 -79 -224 -155 -172 -173 -271
-431 -300 -784 -13 -151 -6 -505 11 -596 3 -17 12 -70 22 -134 3 -14 18 -73
34 -132 81 -288 229 -487 431 -581 88 -41 153 -49 393 -49 127 0 238 1 246 1
13 1 15 49 16 364 1 338 2 368 23 447 72 282 238 448 505 506 60 14 183 16
791 18 704 3 722 3 810 25 287 70 461 254 502 531 3 19 6 319 7 665 1 459 -2
647 -10 691 -32 161 -155 304 -341 398 -103 51 -280 109 -376 121 -16 2 -40 6
-55 9 -85 18 -235 28 -449 31 -132 2 -243 2 -245 0z m-374 -410 c82 -35 131
-115 129 -212 -1 -51 -7 -70 -33 -110 -75 -115 -240 -137 -334 -45 -49 47 -67
84 -73 148 -16 163 156 284 311 219z"/>
<path d="M3968 3462 l-4 -377 -28 -90 c-41 -136 -89 -219 -176 -305 -82 -83
-153 -123 -280 -161 -74 -22 -85 -22 -780 -25 -780 -3 -798 -4 -915 -40 -212
-67 -357 -203 -422 -397 l-28 -82 -3 -673 c-2 -469 0 -690 8 -728 37 -179 198
-340 433 -433 102 -41 252 -78 387 -96 8 -1 44 -6 80 -11 133 -18 692 -10 803
12 16 3 38 7 50 9 90 11 227 47 326 85 203 79 332 197 375 344 8 29 12 138 11
361 l0 320 -610 2 c-336 0 -615 2 -621 2 -6 1 -11 34 -12 86 l-2 85 52 0 c29
0 456 1 948 3 l895 2 80 28 c151 53 275 145 368 274 91 126 166 320 192 498 4
22 8 47 10 55 27 102 27 602 1 745 -2 11 -7 43 -11 70 -18 125 -73 300 -127
409 -106 210 -273 351 -470 395 -22 5 -149 10 -283 10 l-244 1 -3 -378z m-628
-2607 c54 -18 115 -74 136 -125 19 -45 19 -126 1 -170 -37 -87 -125 -141 -218
-135 -123 8 -209 97 -209 218 0 68 19 115 65 158 63 61 145 81 225 54z"/>
</g>
</svg>
